# xmcd
#
# Track frame offsets:
#	150
#	15503
#	33589
#	52998
#	75974
#	90854
#	106766
#	124454
#	142978
#	157871
#	178988
#	207539
#	223424
#	242090
#	259621
#	286924
#	306222
#	322182
#	341061
#
# Disc length: 4760 seconds
#
# Revision: 1
# Processed by: cddbd v1.5.2PL0 Copyright (c) Steve Scherf et al.
# Submitted via: audiograbber 1.83.01
#
DISCID=0d129613
DTITLE=Various Artist - 101 Love Songs CD2
DYEAR=2008
DGENRE=Pop
TTITLE0=Phil Collins - Against All Odds (Take A Look At Me Now)
TTITLE1=Air Supply - All Out Of Love
TTITLE2=Roxette - It Must Have Been Love
TTITLE3=Sinéad O'Connor - Nothing Compares 2 U
TTITLE4=Nilsson - Without You
TTITLE5=Frankie Valli - My Eyes Adored You
TTITLE6=Cliff Richard - Miss You Nights
TTITLE7=Kiki Dee - Amoureuse
TTITLE8=Clifford T Ward - Home Thoughts From Abroad
TTITLE9=Eva Cassidy - Fields Of Gold
TTITLE10=Al Green - How Can You Mend A Broken Heart?
TTITLE11=Willie Nelson - Always On My Mind
TTITLE12=Dan Hill - Sometimes When We Touch
TTITLE13=Samantha Sang - Emotion
TTITLE14=Alexander O'Neal - If You Were Here Tonight
TTITLE15=Jon Secada - Just Another Day
TTITLE16=KT Tunstall - Other Side Of The World
TTITLE17=Katie Melua - The Closest Thing To Crazy
TTITLE18=Leo Sayer - I Can't Stop Loving You (Though I Try)
EXTD=50999 522118 2 9  CD2 of 5 CD set
EXTT0=
EXTT1=
EXTT2=
EXTT3=
EXTT4=
EXTT5=
EXTT6=
EXTT7=
EXTT8=
EXTT9=
EXTT10=
EXTT11=
EXTT12=
EXTT13=
EXTT14=
EXTT15=
EXTT16=
EXTT17=
EXTT18=
PLAYORDER=
